<svg width="306" height="122" viewBox="0 0 306 122" fill="none" xmlns="http://www.w3.org/2000/svg">
<path fill-rule="evenodd" clip-rule="evenodd" d="M20.0599 111.463C16.2791 111.463 14.353 109.601 14.353 106.541C14.353 100.834 20.7162 98.9149 32.3227 97.6808C32.3227 105.285 27.1794 111.463 20.0243 111.463H20.0599ZM25.0535 68.6965C16.757 68.6965 7.2193 72.5988 2.04023 76.7292L6.76987 86.7163C10.9217 82.9141 17.6345 79.6611 23.691 79.6611C29.4479 79.6611 32.6295 81.5872 32.6295 85.4679C32.6295 88.0717 30.5251 89.3915 26.5445 89.9122C11.6636 91.8383 0 95.9473 0 107.411C0 116.499 6.47025 122 16.5787 122C23.798 122 30.2183 117.99 33.2715 112.726V120.573H46.7257V87.6936C46.7257 74.1396 37.3163 68.668 25.0607 68.668L25.0535 68.6965Z" fill="black"/>
<path fill-rule="evenodd" clip-rule="evenodd" d="M160.086 70.1741V120.509H174.482V96.2547C174.482 84.7338 181.458 81.3453 186.317 81.3453C188.504 81.3282 190.646 81.9617 192.473 83.1644L195.105 69.8603C193.065 69.0437 190.881 68.6482 188.685 68.6975C181.287 68.6975 176.636 71.9717 173.569 78.6345V70.1741H160.086Z" fill="black"/>
<path fill-rule="evenodd" clip-rule="evenodd" d="M261.823 68.6963C254.211 68.6963 248.518 73.1907 245.558 77.5279C242.811 71.928 236.997 68.6963 230.006 68.6963C222.402 68.6963 217.13 72.9196 214.698 77.7847V70.173H200.815V120.508H215.225V94.5917C215.225 85.3179 220.098 80.8308 224.642 80.8308C228.758 80.8308 232.539 83.4917 232.539 90.3614V120.508H246.92V94.5917C246.92 85.1824 251.671 80.8308 256.43 80.8308C260.239 80.8308 264.277 83.5987 264.277 90.2616V120.508H278.658V85.7103C278.658 74.4034 271.047 68.6963 261.851 68.6963" fill="black"/>
<path fill-rule="evenodd" clip-rule="evenodd" d="M125.054 70.1752H112.014V65.0603C112.014 58.3974 115.816 56.4999 119.09 56.4999C121.326 56.5291 123.524 57.0786 125.511 58.105L129.948 47.9537C129.948 47.9537 125.447 45.0146 117.264 45.0146C108.069 45.0146 97.6037 50.2008 97.6037 66.4728V70.1752H75.8103V65.0603C75.8103 58.3974 79.6054 56.4999 82.8869 56.4999C85.1262 56.4997 87.3312 57.051 89.3073 58.105L93.7444 47.9537C91.0978 46.4057 86.839 45.0146 81.0679 45.0146C71.8725 45.0146 61.4073 50.2008 61.4073 66.4728V70.1752H53.0752V81.2751H61.4287V120.51H75.8103V81.2751H97.6323V120.51H112.014V81.2751H125.054V70.1752Z" fill="black"/>
<path d="M148.012 70.1748H133.645V120.489H148.012V70.1748Z" fill="black"/>
<path fill-rule="evenodd" clip-rule="evenodd" d="M134.173 61.6208H148.248C156.458 35.804 184.316 13.1117 217.444 13.1117C257.735 13.1117 292.555 43.7865 292.555 91.5394C292.678 101.341 291.331 111.106 288.56 120.509H302.221L302.357 120.039C304.659 110.73 305.794 101.171 305.738 91.5822C305.738 38.3293 266.931 0 217.473 0C178.623 0 143.996 26.9653 134.18 61.635L134.173 61.6208Z" fill="#4A4AF4"/>
</svg>
